<svg xmlns="http://www.w3.org/2000/svg" width="256" height="256" viewBox="0 0 100 100"><rect width="100" height="100" rx="20" fill="#475569"></rect><path fill="#f0f9ff" d="M27.95 23.23L34.10 70.78L35.45 70.78L35.45 23.23L45.35 23.23L45.35 75.73L26 75.73L19.85 28.18L18.50 28.18L18.50 75.73L8.60 75.73L8.60 23.23L27.95 23.23ZM91.40 60.20L64.10 60.20Q64.17 61.85 64.89 63.24Q65.60 64.63 66.84 65.64Q68.07 66.65 69.69 67.21Q71.30 67.78 73.10 67.78L73.10 67.78Q76.63 67.78 78.50 66.54Q80.38 65.30 81.20 63.58L81.20 63.58L89.30 68.08Q88.63 69.50 87.42 71.04Q86.22 72.58 84.31 73.85Q82.40 75.13 79.66 75.95Q76.92 76.78 73.25 76.78L73.25 76.78Q69.05 76.78 65.60 75.43Q62.15 74.08 59.64 71.53Q57.13 68.98 55.74 65.30Q54.35 61.63 54.35 56.98L54.35 56.98L54.35 56.53Q54.35 52.25 55.81 48.73Q57.27 45.20 59.82 42.73Q62.38 40.25 65.79 38.86Q69.20 37.48 73.10 37.48L73.10 37.48Q77.90 37.48 81.35 39.16Q84.80 40.85 87.05 43.44Q89.30 46.03 90.35 49.14Q91.40 52.25 91.40 55.18L91.40 55.18L91.40 60.20ZM73.02 46.03L73.02 46.03Q69.42 46.03 67.17 47.86Q64.92 49.70 64.25 52.10L64.25 52.10L81.80 52.10Q81.35 49.48 78.99 47.75Q76.63 46.03 73.02 46.03Z"></path></svg>